PathFileType	4	(X/Y/Z)	C:\Users\Basilio\Documents\Thesis Gigler\squatting_fais\c3dfiles\044\SLS_back_pre4\markers_experimental.trc
DataRate	CameraRate	NumFrames	NumMarkers	Units	OrigDataRate	OrigDataStartFrame	OrigNumFrames
200.000000	200.000000	4	63	mm	200.000000	854	1367
Frame#	Time	FHD			LBHD			RBHD			C7			T10			LSHO			LUUPA			LMUPA			LDUPA			LLEP			LMEP			LUL			LRFIN			RSHO			RUPA1			RMUPA			RDUPA			RLEP			RMEP			RUFIN			LASI			RASI			USACR			LSACR			RSACR			LTHI1			LTHI2			LTHI3			LTHI4			LLFC			LMFC			LTIB1			LTIB2			LTIB3			LTIB4			LLMAL			LMMAL			LHEE			LMT1			LMT2			LMT5			RTHI			RTHI2			RTHI3			RTHI4			RLFC			RMFC			RTIB1			RTIB2			RTIB3			RTIB4			RLMAL			RMMAL			RHEE			RMT1			RMT2			RMT5			RRAD			RUL			CLAV			LRAD			*61			*62			
		X1	Y1	Z1	X2	Y2	Z2	X3	Y3	Z3	X4	Y4	Z4	X5	Y5	Z5	X6	Y6	Z6	X7	Y7	Z7	X8	Y8	Z8	X9	Y9	Z9	X10	Y10	Z10	X11	Y11	Z11	X12	Y12	Z12	X13	Y13	Z13	X14	Y14	Z14	X15	Y15	Z15	X16	Y16	Z16	X17	Y17	Z17	X18	Y18	Z18	X19	Y19	Z19	X20	Y20	Z20	X21	Y21	Z21	X22	Y22	Z22	X23	Y23	Z23	X24	Y24	Z24	X25	Y25	Z25	X26	Y26	Z26	X27	Y27	Z27	X28	Y28	Z28	X29	Y29	Z29	X30	Y30	Z30	X31	Y31	Z31	X32	Y32	Z32	X33	Y33	Z33	X34	Y34	Z34	X35	Y35	Z35	X36	Y36	Z36	X37	Y37	Z37	X38	Y38	Z38	X39	Y39	Z39	X40	Y40	Z40	X41	Y41	Z41	X42	Y42	Z42	X43	Y43	Z43	X44	Y44	Z44	X45	Y45	Z45	X46	Y46	Z46	X47	Y47	Z47	X48	Y48	Z48	X49	Y49	Z49	X50	Y50	Z50	X51	Y51	Z51	X52	Y52	Z52	X53	Y53	Z53	X54	Y54	Z54	X55	Y55	Z55	X56	Y56	Z56	X57	Y57	Z57	X58	Y58	Z58	X59	Y59	Z59	X60	Y60	Z60	X61	Y61	Z61	X62	Y62	Z62	X63	Y63	Z63	

855	4.27	-80.18236541748048	1538.6171875	-1063.774658203125	-213.4639739990235	1506.850463867188	-1143.7763671875	-261.2683410644532	1497.039306640625	-984.9676513671877	-287.3376770019532	1341.701782226563	-1060.806640625	-389.5035400390626	1072.819946289063	-998.566589355469	-198.9647674560547	1334.601684570313	-1200.339721679688	-42.79041290283204	1297.932739257813	-1298.50732421875	-13.76652908325196	1310.463500976563	-1258.52001953125	27.49137687683106	1291.282958984375	-1301.119506835938	85.55678558349611	1288.026733398438	-1290.206298828125	72.63106536865236	1212.872436523438	-1270.39599609375	342.3618164062501	1298.534545898438	-1171.79638671875	347.0480651855469	1319.767333984375	-1071.155883789063	-198.564437866211	1347.883178710938	-908.5987548828127	-52.53321075439455	1332.2705078125	-799.9817504882815	-21.00618743896485	1338.642578125	-839.2395019531252	16.53866958618164	1328.011840820313	-794.153747558594	77.7573928833008	1327.095947265625	-801.767761230469	72.50917053222658	1245.072998046875	-802.352478027344	334.4969177246094	1291.8798828125	-1031.803588867188	-318.1356811523438	838.6895141601565	-1089.822509765625	-303.6482849121094	815.1077270507815	-876.267761230469	-448.2312622070314	936.994567871094	-961.2929687500002	-471.7479248046876	911.8575439453127	-986.8833007812502	-459.5738220214845	909.1525878906252	-931.6646118164065	-322.7536010742188	664.3612060546876	-1168.831176757813	-244.4744110107422	630.8453369140626	-1172.184448242188	-210.8632965087891	662.3421630859376	-1164.156860351563	-227.7487945556641	572.1467285156251	-1162.346313476563	-123.9990844726563	463.2700500488282	-1138.158081054688	-121.0621795654297	471.984344482422	-1020.841003417969	-160.0820465087891	310.0515136718751	-1035.806640625	-199.4565429687501	267.7253417968751	-1099.743408203125	-175.4384460449219	256.8891296386719	-1059.857177734375	-228.5006103515626	204.7632598876954	-1020.442199707031	-328.1171569824219	116.9748001098633	-1059.443237304688	-306.2918701171876	133.4083862304688	-974.7485351562502	-397.529998779297	101.9826583862305	-1008.680114746094	-191.3919677734375	58.38942337036134	-981.4463500976565	-189.5756530761719	59.83654403686525	-1028.141723632813	-226.4985961914063	46.22214889526368	-1074.448364257813	-356.1365661621094	566.6018066406251	-786.3023681640627	-298.5733337402344	529.7262573242189	-784.3129882812502	-268.9397277832032	540.8303833007814	-793.7844848632815	-298.1244812011719	444.8939514160157	-797.926452636719	-299.2554931640626	368.2932128906251	-817.1402587890627	-306.9775695800782	362.0613708496094	-933.7471923828127	-390.359100341797	278.8358154296876	-850.358581542969	-482.3045959472657	329.7417602539063	-815.545349121094	-475.1197814941407	286.0895080566407	-829.7349243164065	-518.7006835937501	262.2093811035157	-859.4241333007815	-686.5703735351564	283.2563476562501	-859.6990966796877	-662.2540283203126	264.5246582031251	-941.7950439453127	-727.8823852539064	329.3154907226563	-916.4509887695315	-688.6488647460939	124.5721893310547	-932.3186645507815	-695.9854736328126	114.3345718383789	-894.7275390625002	-734.6981811523439	145.4717864990235	-850.3437500000002	nan	nan	nan	335.1976928710938	1317.20849609375	-918.1855468750002	-162.1418609619141	1271.734741210938	-1056.973022460938	nan	nan	nan	nan	nan	nan	nan	nan	nan	
856	4.275	-80.22643280029298	1538.238891601563	-1063.356689453125	-213.5202178955079	1506.2490234375	-1143.353759765625	-261.0462341308594	1496.364990234375	-984.8350219726565	-287.4114074707032	1341.587280273438	-1060.48095703125	-389.4102478027345	1072.421508789063	-998.4768676757815	-198.6586303710938	1334.392822265625	-1200.144287109375	-42.54457092285157	1297.49462890625	-1298.387939453125	-13.50131702423096	1309.942626953125	-1258.331909179688	27.52736473083497	1290.939819335938	-1300.88232421875	85.10889434814455	1288.086791992188	-1289.90576171875	72.85377502441408	1212.445678710938	-1270.330932617188	342.2608337402344	1298.343139648438	-1171.756591796875	347.0314636230469	1319.404174804688	-1070.871459960938	-198.2609558105469	1347.45166015625	-908.523132324219	-52.43469238281251	1331.823974609375	-799.8194580078127	-20.81859588623047	1337.927368164063	-838.9990844726565	16.77458572387696	1327.476684570313	-793.962341308594	78.06044769287111	1326.476440429688	-801.3792724609377	72.52889251708986	1244.610473632813	-802.1330566406252	334.3567199707032	1291.506713867188	-1031.521850585938	-318.0014038085938	838.392272949219	-1089.839965820313	-303.3919372558594	814.444030761719	-876.0278930664065	-448.057830810547	936.3551025390627	-961.1587524414065	-471.5638122558595	911.2634277343752	-986.7966918945315	-459.633514404297	908.581237792969	-931.419128417969	-322.6328125000001	663.9120483398439	-1168.833129882813	-244.3096466064454	630.5689086914064	-1172.21044921875	-210.2758026123047	661.6854248046876	-1164.136474609375	-227.9333648681641	572.2404174804689	-1162.376342773438	-124.4569320678711	463.7515869140626	-1138.09619140625	-120.5891571044922	471.716766357422	-1020.851867675781	-159.9285736083985	309.9508361816407	-1035.840454101563	-199.3100585937501	267.6193237304688	-1099.713745117188	-175.3300018310547	256.8240966796876	-1059.766479492188	-228.4638366699219	204.5702056884766	-1020.278198242188	-328.0918273925782	116.997314453125	-1059.342529296875	-306.2767944335938	133.3775634765625	-974.6982421875002	-397.5320739746095	101.9769439697266	-1008.680480957031	-191.3674621582032	58.42368316650392	-981.4033813476565	-189.6286010742188	59.91990280151369	-1028.083129882813	-226.6252136230469	46.29936218261719	-1074.39208984375	-355.8322143554688	566.0245971679689	-786.5825805664065	-298.1946716308594	528.7648315429689	-784.1089477539065	-268.7682800292969	540.2450561523439	-793.8918457031252	-297.8556518554688	444.3979492187501	-798.0574951171877	-299.0269775390626	367.5761108398438	-817.2825927734377	-306.6618957519532	361.5299682617188	-933.930603027344	-390.1046752929689	278.4956970214844	-850.6472167968752	-482.0906677246095	329.1638183593751	-815.789733886719	-474.9441833496095	285.6388549804688	-829.8514404296877	-518.5100708007814	261.7326049804688	-859.656677246094	-686.2622070312501	282.8718261718751	-859.9633789062502	-661.9030151367189	263.9918823242188	-942.0683593750002	-727.6179199218751	328.9549255371094	-916.732360839844	-688.3866577148439	124.3620681762696	-932.7354736328127	-695.8154907226564	113.9191436767578	-895.123229980469	-734.5919799804689	145.2907867431641	-850.6623535156252	nan	nan	nan	335.3125610351563	1316.697021484375	-917.8084106445315	-161.9951324462891	1271.208984375	-1056.771118164063	nan	nan	nan	nan	nan	nan	nan	nan	nan	
857	4.28	-79.9058303833008	1537.58544921875	-1063.1337890625	-213.3282775878907	1505.849609375	-1143.079223632813	-260.8240051269532	1495.970825195313	-984.6370239257815	-287.0711059570313	1340.78564453125	-1060.004150390625	-389.1482238769532	1071.726318359375	-998.2922973632815	-198.4959106445313	1333.884887695313	-1200.04931640625	-42.38272094726563	1297.077026367188	-1298.185180664063	-13.23909664154053	1309.504516601563	-1258.0751953125	27.63543128967286	1290.539306640625	-1300.657958984375	85.3521194458008	1287.7353515625	-1289.802124023438	72.80955505371095	1211.762451171875	-1269.853515625	342.3503417968751	1297.773803710938	-1171.37744140625	347.2865295410157	1318.678833007813	-1070.485595703125	-198.0183410644532	1346.859741210938	-908.2717285156252	-52.1190757751465	1331.227905273438	-799.5543212890627	-20.63587379455567	1337.112426757813	-838.538757324219	16.86099243164063	1326.842895507813	-793.5136718750002	78.3042678833008	1325.90673828125	-801.114685058594	72.49803924560548	1243.88818359375	-801.7929687500002	334.4880981445313	1290.771362304688	-1031.138427734375	-317.8800659179688	837.931579589844	-1089.864135742188	-303.3007202148438	814.0371093750002	-876.2752075195315	-447.9736328125001	935.9199829101565	-961.0567016601565	-471.5152282714845	910.7701416015627	-986.6710205078127	-459.3464355468751	908.1773071289065	-931.3128662109377	-322.4941406250001	663.5089111328126	-1168.87353515625	-244.0451812744141	630.3228759765626	-1172.213989257813	-210.2018280029297	661.3214721679689	-1164.12353515625	-227.9987182617188	571.8212890625001	-1161.613037109375	-124.2174530029297	463.6714782714845	-1137.961791992188	-120.2684173583985	471.5401611328126	-1020.69287109375	-159.8267364501953	309.7415466308594	-1035.7685546875	-199.1649475097657	267.5445861816407	-1099.661987304688	-175.2489318847657	256.7395019531251	-1059.6103515625	-228.3574676513672	204.4344787597657	-1020.322448730469	-328.0513610839844	117.0320205688477	-1059.328125	-306.2671508789063	133.3209381103516	-974.629333496094	-397.520477294922	101.9511032104492	-1008.671264648438	-191.5084228515625	58.28396606445314	-981.3615722656252	-189.5502014160157	59.85540771484376	-1028.105224609375	-226.5187988281251	46.3542823791504	-1074.409545898438	-355.4733581542969	565.4417724609376	-786.7601318359377	-297.8558959960938	528.0868530273439	-784.2512207031252	-268.4383544921876	539.7835693359376	-793.9932250976565	-297.5464477539063	443.6436462402345	-797.916198730469	-298.7640991210938	367.1974792480469	-817.3433227539065	-306.5177307128907	360.9435424804688	-933.946228027344	-389.7662353515626	277.9757080078126	-850.8477783203127	-481.8291320800782	328.6264648437501	-816.0191650390627	-474.7789916992189	285.1279907226563	-829.9629516601565	-518.1588134765626	260.9719238281251	-859.9437255859377	-686.0731811523439	282.3513183593751	-860.1519775390627	-661.6992797851564	263.7045898437501	-942.2915039062502	-727.4854125976564	328.7590942382813	-916.8848266601565	-688.2835083007814	124.0168228149414	-932.9647216796877	-695.6259765625001	113.5794296264649	-895.471618652344	-734.5634765625001	144.9164428710938	-850.9616699218752	nan	nan	nan	335.3728027343751	1316.2509765625	-917.5068969726565	-161.8367156982422	1270.706298828125	-1056.625366210938	nan	nan	nan	nan	nan	nan	nan	nan	nan	
858	4.285	-81.04544830322267	1537.259643554688	-1063.174926757813	-213.1920166015626	1505.255004882813	-1142.907958984375	-260.7199401855469	1495.573364257813	-984.3966064453127	-287.0799865722657	1340.309692382813	-1059.774047851563	-389.0519104003907	1071.416870117188	-998.2232055664065	-198.2416534423829	1333.526733398438	-1199.8310546875	-42.12307357788087	1296.759033203125	-1297.927124023438	-12.7511739730835	1308.907104492188	-1257.876586914063	27.82647514343262	1289.96240234375	-1300.405517578125	86.02108764648439	1286.917846679688	-1289.5810546875	73.09724426269533	1210.893676757813	-1269.804443359375	342.4689941406251	1297.164184570313	-1170.981811523438	347.4748535156251	1318.010864257813	-1070.098510742188	-197.7266387939454	1346.247192382813	-908.0366210937502	-51.81075286865236	1330.577514648438	-799.196960449219	-20.68635368347168	1337.143676757813	-838.6901855468752	16.98935317993164	1326.112182617188	-793.5346679687502	78.37988281250001	1324.80078125	-801.026550292969	72.82913208007814	1243.45703125	-801.4631958007815	334.5527954101563	1290.093627929688	-1030.754150390625	-317.8047180175782	837.6172485351565	-1089.833251953125	-303.1141662597657	813.6593017578127	-876.2961425781252	-447.8165588378907	935.5760498046877	-960.8779296875002	-471.2906188964845	910.1448364257815	-986.6052856445315	-459.1070556640626	907.5581665039065	-931.3146972656252	-322.3546142578126	663.1966552734376	-1168.909423828125	-243.7449798583985	629.9201049804689	-1172.203369140625	-210.0485076904297	661.0386352539064	-1164.042846679688	-227.7418060302735	571.5651245117189	-1161.60107421875	-123.8578414916992	463.5574340820314	-1137.971923828125	-120.0230865478516	471.1470642089845	-1020.618469238281	-159.6600799560547	309.5615539550782	-1035.663452148438	-198.8733367919922	267.3922729492188	-1099.572021484375	-175.0498504638672	256.4850158691407	-1059.538696289063	-228.1956634521485	204.2694244384766	-1020.207641601563	-328.0029296875001	117.0073013305664	-1059.331420898438	-306.2381591796876	133.1473693847657	-974.4844970703127	-397.4587402343751	102.0317611694336	-1008.575988769531	-191.5260772705078	58.30330276489259	-981.3515625000002	-189.5477600097657	59.89237213134767	-1028.033569335938	-226.6372528076172	46.25834274291993	-1074.334716796875	-355.4439086914063	565.0841064453126	-786.8862915039065	-297.5999145507813	527.5380249023439	-784.262634277344	-268.0523681640626	539.0062866210939	-794.100769042969	-297.2092590332032	443.1365966796876	-798.131530761719	-298.3919067382813	366.5131225585938	-817.7084960937502	-306.2303466796876	360.6296081542969	-934.319030761719	-389.6474609375001	277.5681152343751	-850.8887329101565	-481.7039794921876	328.3838806152344	-816.0825195312502	-474.536590576172	284.5644836425782	-830.2427368164065	-517.9184570312501	260.5380554199219	-860.302673339844	-685.9448852539064	282.1433715820313	-860.4874267578127	-661.4810791015626	263.2330017089844	-942.5468750000002	-727.3541259765626	328.4668884277344	-917.0500488281252	-688.2297973632814	123.6445541381836	-933.3059692382815	-695.5449218750001	113.1773452758789	-895.8518066406252	-734.5150146484376	144.5162200927735	-851.1770629882815	nan	nan	nan	335.5356140136719	1315.7080078125	-917.273620605469	-161.3383026123047	1270.267700195313	-1056.473266601563	nan	nan	nan	nan	nan	nan	nan	nan	nan	
